<mxfile host="65bd71144e">
    <diagram id="pgB8vjxmGpwlhbniAynO" name="Страница 1">
        <mxGraphModel dx="1130" dy="550" grid="0" gridSize="10" guides="1" tooltips="1" connect="1" arrows="1" fold="1" page="1" pageScale="1" pageWidth="827" pageHeight="1169" background="none" math="0" shadow="0">
            <root>
                <mxCell id="0"/>
                <mxCell id="1" parent="0"/>
                <mxCell id="406" value="" style="edgeStyle=none;html=1;rounded=1;" edge="1" parent="1" source="402" target="405">
                    <mxGeometry relative="1" as="geometry"/>
                </mxCell>
                <mxCell id="402" value="start" style="ellipse;whiteSpace=wrap;html=1;rounded=1;" vertex="1" parent="1">
                    <mxGeometry x="80" y="20" width="120" height="80" as="geometry"/>
                </mxCell>
                <mxCell id="415" value="" style="edgeStyle=none;html=1;rounded=1;" edge="1" parent="1" source="403" target="414">
                    <mxGeometry relative="1" as="geometry"/>
                </mxCell>
                <mxCell id="403" value="size_new_array = 0" style="rounded=1;whiteSpace=wrap;html=1;" vertex="1" parent="1">
                    <mxGeometry x="80" y="220" width="120" height="60" as="geometry"/>
                </mxCell>
                <mxCell id="407" value="" style="edgeStyle=none;html=1;rounded=1;" edge="1" parent="1" source="405" target="403">
                    <mxGeometry relative="1" as="geometry"/>
                </mxCell>
                <mxCell id="405" value="array&lt;br&gt;max_count_char" style="shape=parallelogram;perimeter=parallelogramPerimeter;whiteSpace=wrap;html=1;fixedSize=1;rounded=1;" vertex="1" parent="1">
                    <mxGeometry x="80" y="130" width="120" height="60" as="geometry"/>
                </mxCell>
                <mxCell id="417" value="" style="edgeStyle=none;html=1;rounded=1;" edge="1" parent="1" source="414" target="416">
                    <mxGeometry relative="1" as="geometry"/>
                </mxCell>
                <mxCell id="423" value="" style="edgeStyle=none;html=1;entryX=1;entryY=0.5;entryDx=0;entryDy=0;exitX=0.375;exitY=1;exitDx=0;exitDy=0;rounded=1;" edge="1" parent="1" source="414" target="422">
                    <mxGeometry relative="1" as="geometry">
                        <Array as="points">
                            <mxPoint x="325" y="350"/>
                        </Array>
                    </mxGeometry>
                </mxCell>
                <mxCell id="414" value="i=0, lenght(array), 1" style="shape=hexagon;perimeter=hexagonPerimeter2;whiteSpace=wrap;html=1;fixedSize=1;rounded=1;" vertex="1" parent="1">
                    <mxGeometry x="280" y="210" width="120" height="80" as="geometry"/>
                </mxCell>
                <mxCell id="419" value="yes" style="edgeStyle=none;html=1;rounded=1;" edge="1" parent="1" source="416" target="418">
                    <mxGeometry relative="1" as="geometry"/>
                </mxCell>
                <mxCell id="416" value="length(array[i])&amp;lt;=max_count_char" style="rhombus;whiteSpace=wrap;html=1;rounded=1;" vertex="1" parent="1">
                    <mxGeometry x="440" y="210" width="230" height="80" as="geometry"/>
                </mxCell>
                <mxCell id="418" value="size_new_array++" style="whiteSpace=wrap;html=1;rounded=1;" vertex="1" parent="1">
                    <mxGeometry x="495" y="100" width="120" height="60" as="geometry"/>
                </mxCell>
                <mxCell id="420" value="" style="endArrow=classic;html=1;exitX=0;exitY=0.5;exitDx=0;exitDy=0;entryX=0.625;entryY=0;entryDx=0;entryDy=0;rounded=1;" edge="1" parent="1" source="418" target="414">
                    <mxGeometry width="50" height="50" relative="1" as="geometry">
                        <mxPoint x="360" y="290" as="sourcePoint"/>
                        <mxPoint x="410" y="240" as="targetPoint"/>
                        <Array as="points">
                            <mxPoint x="355" y="130"/>
                        </Array>
                    </mxGeometry>
                </mxCell>
                <mxCell id="421" value="no" style="endArrow=classic;html=1;exitX=0.5;exitY=1;exitDx=0;exitDy=0;entryX=0.625;entryY=1;entryDx=0;entryDy=0;rounded=1;" edge="1" parent="1" source="416" target="414">
                    <mxGeometry width="50" height="50" relative="1" as="geometry">
                        <mxPoint x="360" y="290" as="sourcePoint"/>
                        <mxPoint x="410" y="240" as="targetPoint"/>
                        <Array as="points">
                            <mxPoint x="555" y="360"/>
                            <mxPoint x="355" y="360"/>
                        </Array>
                    </mxGeometry>
                </mxCell>
                <mxCell id="425" value="" style="edgeStyle=none;html=1;rounded=1;" edge="1" parent="1" source="422" target="424">
                    <mxGeometry relative="1" as="geometry"/>
                </mxCell>
                <mxCell id="422" value="new_array&lt;br&gt;lenght(new_array) =&amp;nbsp;&lt;br&gt;size_new_array" style="rounded=1;whiteSpace=wrap;html=1;" vertex="1" parent="1">
                    <mxGeometry x="80" y="320" width="120" height="60" as="geometry"/>
                </mxCell>
                <mxCell id="427" value="yes" style="edgeStyle=none;html=1;rounded=1;" edge="1" parent="1" source="424" target="426">
                    <mxGeometry relative="1" as="geometry"/>
                </mxCell>
                <mxCell id="429" value="no" style="edgeStyle=none;html=1;rounded=1;" edge="1" parent="1" source="424" target="428">
                    <mxGeometry relative="1" as="geometry"/>
                </mxCell>
                <mxCell id="424" value="size_new_array == 0" style="rhombus;whiteSpace=wrap;html=1;rounded=1;" vertex="1" parent="1">
                    <mxGeometry x="60" y="420" width="160" height="80" as="geometry"/>
                </mxCell>
                <mxCell id="442" value="" style="edgeStyle=none;rounded=1;html=1;" edge="1" parent="1" source="426" target="441">
                    <mxGeometry relative="1" as="geometry"/>
                </mxCell>
                <mxCell id="426" value="new_array" style="shape=document;whiteSpace=wrap;html=1;boundedLbl=1;rounded=1;" vertex="1" parent="1">
                    <mxGeometry x="280" y="420" width="120" height="80" as="geometry"/>
                </mxCell>
                <mxCell id="431" value="" style="edgeStyle=none;html=1;rounded=1;" edge="1" parent="1" source="428" target="430">
                    <mxGeometry relative="1" as="geometry"/>
                </mxCell>
                <mxCell id="428" value="j = 0" style="whiteSpace=wrap;html=1;rounded=1;" vertex="1" parent="1">
                    <mxGeometry x="80" y="540" width="120" height="60" as="geometry"/>
                </mxCell>
                <mxCell id="433" value="" style="edgeStyle=none;html=1;exitX=0.625;exitY=1;exitDx=0;exitDy=0;rounded=1;" edge="1" parent="1" source="430" target="432">
                    <mxGeometry relative="1" as="geometry">
                        <Array as="points">
                            <mxPoint x="155" y="780"/>
                        </Array>
                    </mxGeometry>
                </mxCell>
                <mxCell id="430" value="i=0, length(array), 1" style="shape=hexagon;perimeter=hexagonPerimeter2;whiteSpace=wrap;html=1;fixedSize=1;rounded=1;" vertex="1" parent="1">
                    <mxGeometry x="80" y="650" width="120" height="80" as="geometry"/>
                </mxCell>
                <mxCell id="435" value="" style="edgeStyle=none;html=1;rounded=1;" edge="1" parent="1" source="432" target="434">
                    <mxGeometry relative="1" as="geometry">
                        <Array as="points">
                            <mxPoint x="370" y="880"/>
                        </Array>
                    </mxGeometry>
                </mxCell>
                <mxCell id="436" value="yes" style="edgeLabel;html=1;align=center;verticalAlign=middle;resizable=0;points=[];rounded=1;" vertex="1" connectable="0" parent="435">
                    <mxGeometry x="-0.0348" y="1" relative="1" as="geometry">
                        <mxPoint as="offset"/>
                    </mxGeometry>
                </mxCell>
                <mxCell id="432" value="length(array[i])&amp;lt;=max_count_char" style="rhombus;whiteSpace=wrap;html=1;rounded=1;" vertex="1" parent="1">
                    <mxGeometry x="240" y="740" width="260" height="80" as="geometry"/>
                </mxCell>
                <mxCell id="434" value="new_array[j] = array[i]&lt;br&gt;j++&amp;nbsp;" style="whiteSpace=wrap;html=1;rounded=1;" vertex="1" parent="1">
                    <mxGeometry x="60" y="850" width="140" height="60" as="geometry"/>
                </mxCell>
                <mxCell id="437" value="" style="endArrow=classic;html=1;exitX=0.457;exitY=-0.033;exitDx=0;exitDy=0;entryX=0.375;entryY=1;entryDx=0;entryDy=0;exitPerimeter=0;rounded=1;" edge="1" parent="1" source="434" target="430">
                    <mxGeometry width="50" height="50" relative="1" as="geometry">
                        <mxPoint x="360" y="700" as="sourcePoint"/>
                        <mxPoint x="410" y="650" as="targetPoint"/>
                    </mxGeometry>
                </mxCell>
                <mxCell id="438" value="" style="endArrow=classic;html=1;exitX=0.5;exitY=0;exitDx=0;exitDy=0;entryX=1;entryY=0.75;entryDx=0;entryDy=0;rounded=1;" edge="1" parent="1" source="432" target="430">
                    <mxGeometry width="50" height="50" relative="1" as="geometry">
                        <mxPoint x="360" y="700" as="sourcePoint"/>
                        <mxPoint x="410" y="650" as="targetPoint"/>
                        <Array as="points">
                            <mxPoint x="370" y="707"/>
                        </Array>
                    </mxGeometry>
                </mxCell>
                <mxCell id="439" value="no" style="edgeLabel;html=1;align=center;verticalAlign=middle;resizable=0;points=[];rounded=1;" vertex="1" connectable="0" parent="438">
                    <mxGeometry x="0.0588" y="2" relative="1" as="geometry">
                        <mxPoint as="offset"/>
                    </mxGeometry>
                </mxCell>
                <mxCell id="440" value="" style="endArrow=classic;html=1;exitX=1;exitY=0.25;exitDx=0;exitDy=0;entryX=0.4;entryY=0.975;entryDx=0;entryDy=0;entryPerimeter=0;rounded=1;" edge="1" parent="1" source="430" target="426">
                    <mxGeometry width="50" height="50" relative="1" as="geometry">
                        <mxPoint x="360" y="700" as="sourcePoint"/>
                        <mxPoint x="410" y="650" as="targetPoint"/>
                        <Array as="points">
                            <mxPoint x="330" y="673"/>
                        </Array>
                    </mxGeometry>
                </mxCell>
                <mxCell id="441" value="end" style="ellipse;whiteSpace=wrap;html=1;rounded=1;" vertex="1" parent="1">
                    <mxGeometry x="450" y="420" width="120" height="80" as="geometry"/>
                </mxCell>
            </root>
        </mxGraphModel>
    </diagram>
</mxfile>